<?xml version="1.0" encoding="utf-8"?>
<!-- Generator: Adobe Illustrator 21.0.0, SVG Export Plug-In . SVG Version: 6.00 Build 0)  -->
<svg version="1.1" id="Layer_1" xmlns="http://www.w3.org/2000/svg" xmlns:xlink="http://www.w3.org/1999/xlink" x="0px" y="0px"
	 viewBox="0 0 141.7 141.7" style="enable-background:new 0 0 141.7 141.7;" xml:space="preserve">
<style type="text/css">
	.st0{fill:#2CAA5B;}
</style>
<path class="st0" d="M100.2,73.7l-60-60c-2.4-2.4-2.4-6.3,0-8.7l0,0c2.4-2.4,6.3-2.4,8.7,0l60,60c2.4,2.4,2.4,6.3,0,8.7l0,0
	C106.5,76.1,102.6,76.1,100.2,73.7z"/>
<path class="st0" d="M108.9,74.2l-60,60c-2.4,2.4-6.3,2.4-8.7,0l0,0c-2.4-2.4-2.4-6.3,0-8.7l60-60c2.4-2.4,6.3-2.4,8.7,0l0,0
	C111.3,67.9,111.3,71.8,108.9,74.2z"/>
</svg>
